<?xml version="1.0" encoding="utf-8"?><svg version="1.1" id="Layer_1" xmlns="http://www.w3.org/2000/svg" xmlns:xlink="http://www.w3.org/1999/xlink" x="0px" y="0px" viewBox="0 0 122.12 122.88" style="enable-background:new 0 0 122.12 122.88" xml:space="preserve"><style type="text/css">.st0{fill-rule:evenodd;clip-rule:evenodd;}</style><g><path class="st0" d="M49.16,18.15c0.46,0.13,0.97,0.07,1.52-0.14l-0.91-5.19c0.34-1.3,0.86-2.32,1.56-3.06 c0.72-0.78,1.63-1.26,2.71-1.47c1.43-0.1,1.86,0.94,3.3,1.86c4.36,2.78,8.04,3.72,13.42,3.79l-1.11,4.49 c0.35,0.15,0.78,0.2,1.21,0.12c0.86-0.07,1.39,0,1.52,0.28c0.2,0.4,0.02,1.25-0.58,2.62l-2.94,4.84c-1.09,1.8-2.2,3.6-3.6,4.91 c-1.34,1.25-2.98,2.09-5.24,2.08c-2.08-0.01-3.65-0.81-4.95-1.99c-1.36-1.24-2.45-2.93-3.5-4.59l-2.61-4.16l0,0l-0.01-0.02 c-0.8-1.18-1.21-2.2-1.23-2.98c-0.01-0.26,0.03-0.48,0.11-0.66c0.07-0.16,0.19-0.29,0.34-0.4C48.41,18.3,48.74,18.2,49.16,18.15 L49.16,18.15z M104.6,114.83l2.17,6.39l1.09-3.79l-0.54-0.59c-0.24-0.35-0.29-0.66-0.16-0.93c0.29-0.57,0.89-0.47,1.45-0.47 c0.59,0,1.31-0.11,1.5,0.62c0.06,0.25-0.02,0.5-0.19,0.77l-0.54,0.59l1.09,3.79l1.97-6.39c1.42,1.28,5.62,1.53,7.19,2.41 c0.49,0.28,0.94,0.63,1.3,1.1c0.81,1.07,2.28,4.35-0.2,4.54h-12.11H96.32c-2.49-0.19-1.01-3.47-0.2-4.54 c0.36-0.47,0.81-0.83,1.3-1.1C98.98,116.37,103.18,116.11,104.6,114.83L104.6,114.83z M9.66,114.83l2.17,6.39l1.09-3.79l-0.54-0.59 c-0.24-0.35-0.29-0.66-0.16-0.93c0.29-0.57,0.89-0.47,1.45-0.47c0.59,0,1.31-0.11,1.5,0.62c0.06,0.25-0.02,0.5-0.19,0.77 l-0.54,0.59l1.09,3.79l1.97-6.39c1.42,1.28,5.62,1.53,7.19,2.41c0.49,0.28,0.94,0.63,1.3,1.1c0.74,0.98,2.24,4.35-0.2,4.54H13.69 H1.38c-2.49-0.19-1.01-3.47-0.2-4.54c0.36-0.47,0.81-0.83,1.3-1.1C4.04,116.37,8.24,116.11,9.66,114.83L9.66,114.83z M8.55,105.69 c0.23,0.08,0.48,0.08,0.74,0.01l-0.46-2.44c0.16-0.61,0.4-1.08,0.72-1.42c0.34-0.36,0.76-0.59,1.26-0.68 c0.67-0.05,0.87,0.44,1.53,0.86c2.03,1.29,3.74,1.73,6.24,1.76l-0.49,2.09c0.2,0.03,0.39,0.03,0.57-0.01 c0.41-0.03,0.65,0.01,0.73,0.16c0.1,0.2,0.02,0.61-0.27,1.26l-1.37,2.25c-0.51,0.84-1.03,1.68-1.68,2.29 c-0.63,0.59-1.41,0.98-2.47,0.98c-0.98,0-1.72-0.38-2.33-0.94c-0.64-0.58-1.15-1.37-1.63-2.15l-1.21-1.93l-0.01-0.01 c-0.38-0.56-0.57-1.04-0.58-1.41c0-0.13,0.02-0.24,0.06-0.33c0.04-0.08,0.1-0.15,0.18-0.21C8.18,105.76,8.34,105.71,8.55,105.69 L8.55,105.69z M19.42,105.26l0.08-3.16c-0.09-1.28-0.51-2.25-1.19-2.98c-1.66-1.79-4.75-2.25-7.08-1.41 c-0.39,0.14-0.77,0.32-1.1,0.54c-0.96,0.61-1.74,1.51-2.05,2.62c-0.07,0.26-0.12,0.52-0.15,0.79c-0.05,1.11-0.02,2.43,0.06,3.48 c-0.11,0.04-0.2,0.09-0.29,0.15c-0.19,0.13-0.32,0.29-0.41,0.48c-0.09,0.18-0.13,0.4-0.12,0.63c0.01,0.5,0.25,1.1,0.69,1.76 l1.21,1.93c0.51,0.81,1.05,1.64,1.75,2.28c0.73,0.66,1.61,1.11,2.79,1.12c1.26,0,2.18-0.46,2.93-1.16c0.72-0.68,1.26-1.56,1.8-2.44 l1.38-2.28c0.01-0.01,0.01-0.03,0.02-0.04l0,0c0.38-0.86,0.46-1.45,0.26-1.84C19.87,105.49,19.68,105.34,19.42,105.26L19.42,105.26 z M57.13,112.42l2.17,6.39l1.09-3.79l-0.54-0.59c-0.24-0.35-0.29-0.66-0.16-0.93c0.29-0.57,0.89-0.47,1.45-0.47 c0.59,0,1.31-0.11,1.5,0.62c0.06,0.25-0.02,0.5-0.19,0.77l-0.54,0.59l1.09,3.79l1.97-6.39c1.42,1.28,5.62,1.53,7.19,2.41 c0.49,0.28,0.94,0.63,1.3,1.1c0.81,1.07,2.28,4.35-0.2,4.54H61.16H48.85c-2.25-0.17-0.81-3.73-0.2-4.54 c0.36-0.47,0.81-0.83,1.3-1.1C51.51,113.96,55.71,113.7,57.13,112.42L57.13,112.42z M56.02,103.27c0.23,0.08,0.48,0.08,0.74,0.01 l-0.46-2.44c0.16-0.61,0.4-1.08,0.72-1.42c0.34-0.36,0.76-0.59,1.26-0.68c0.67-0.05,0.87,0.44,1.53,0.86 c2.03,1.29,3.74,1.73,6.24,1.76l-0.49,2.09c0.2,0.03,0.39,0.03,0.57-0.01c0.41-0.03,0.65,0.01,0.73,0.16 c0.1,0.2,0.02,0.61-0.27,1.26l-1.37,2.25c-0.51,0.84-1.03,1.68-1.68,2.29c-0.63,0.59-1.41,0.98-2.47,0.98 c-0.98,0-1.72-0.38-2.33-0.94c-0.64-0.58-1.15-1.37-1.63-2.15l-1.21-1.93l-0.01-0.01c-0.38-0.56-0.57-1.04-0.58-1.41 c0-0.13,0.02-0.24,0.06-0.33c0.04-0.08,0.1-0.15,0.18-0.21C55.65,103.35,55.81,103.3,56.02,103.27L56.02,103.27z M66.89,102.85 l0.08-3.16c-0.09-1.28-0.51-2.25-1.19-2.98c-1.66-1.79-4.75-2.25-7.08-1.41c-0.39,0.14-0.77,0.32-1.1,0.54 c-0.96,0.61-1.74,1.51-2.05,2.62c-0.07,0.26-0.12,0.52-0.15,0.79c-0.05,1.11-0.02,2.43,0.06,3.48c-0.11,0.04-0.2,0.09-0.29,0.15 c-0.19,0.13-0.33,0.29-0.41,0.48c-0.09,0.18-0.13,0.4-0.12,0.63c0.01,0.5,0.24,1.1,0.69,1.76l1.21,1.93 c0.51,0.81,1.05,1.64,1.75,2.28c0.73,0.66,1.61,1.11,2.79,1.12c1.26,0,2.18-0.46,2.93-1.16c0.72-0.68,1.26-1.56,1.8-2.43l1.38-2.28 c0.01-0.01,0.01-0.03,0.02-0.04l0,0c0.38-0.86,0.46-1.45,0.26-1.84C67.34,103.08,67.15,102.93,66.89,102.85L66.89,102.85z M103.49,105.69c0.23,0.08,0.48,0.08,0.74,0.01l-0.46-2.44c0.16-0.61,0.4-1.08,0.72-1.42c0.34-0.36,0.76-0.59,1.26-0.68 c0.67-0.05,0.87,0.44,1.53,0.86c2.03,1.29,3.74,1.73,6.24,1.76l-0.49,2.09c0.2,0.03,0.39,0.03,0.57-0.01 c0.41-0.03,0.65,0.01,0.73,0.16c0.1,0.2,0.02,0.61-0.27,1.26l-1.37,2.25c-0.51,0.84-1.03,1.68-1.68,2.29 c-0.63,0.59-1.41,0.98-2.47,0.98c-0.98,0-1.72-0.38-2.33-0.94c-0.64-0.58-1.15-1.37-1.63-2.15l-1.21-1.93l-0.01-0.01 c-0.38-0.56-0.57-1.04-0.58-1.41c0-0.13,0.02-0.24,0.06-0.33c0.04-0.08,0.1-0.15,0.18-0.21 C103.11,105.76,103.28,105.71,103.49,105.69L103.49,105.69z M114.36,105.26l0.08-3.16c-0.09-1.28-0.51-2.25-1.19-2.98 c-1.66-1.79-4.75-2.25-7.08-1.41c-0.39,0.14-0.77,0.32-1.1,0.54c-0.96,0.61-1.74,1.51-2.05,2.62c-0.07,0.26-0.12,0.52-0.15,0.79 c-0.05,1.11-0.02,2.43,0.06,3.48c-0.11,0.04-0.2,0.09-0.29,0.15c-0.19,0.13-0.32,0.29-0.42,0.48c-0.09,0.18-0.13,0.4-0.12,0.63 c0.01,0.5,0.25,1.1,0.69,1.76l1.21,1.93c0.51,0.81,1.05,1.64,1.75,2.28c0.73,0.66,1.61,1.11,2.79,1.12c1.26,0,2.18-0.46,2.93-1.16 c0.72-0.68,1.26-1.56,1.8-2.44l1.38-2.28c0.01-0.01,0.01-0.03,0.02-0.04l0,0c0.38-0.86,0.46-1.45,0.26-1.84 C114.81,105.49,114.62,105.34,114.36,105.26L114.36,105.26z M51.56,37.72l4.68,13.75l2.35-8.16l-1.15-1.26 c-0.52-0.76-0.63-1.42-0.34-1.99c0.62-1.24,1.92-1,3.12-1c1.26,0,2.83-0.24,3.22,1.34c0.13,0.53-0.03,1.08-0.4,1.65l-1.15,1.26 l2.35,8.16l4.23-13.75c3.05,2.75,12.1,3.3,15.46,5.18c1.06,0.59,2.03,1.35,2.8,2.37c1.17,1.55,1.89,3.57,2.09,6.14l0.7,5.89 c-0.17,1.82-1.2,2.86-3.23,3.02H60.24H33.75c-2.03-0.15-3.06-1.2-3.23-3.02l0.7-5.89c0.2-2.57,0.92-4.59,2.09-6.14 c0.77-1.02,1.73-1.78,2.8-2.37C39.47,41.02,48.51,40.46,51.56,37.72L51.56,37.72z M64.82,65.71v9.99h47.48c0,7.98,0,10.57,0,18.55 h-6.5V82.21H64.82v7.88H57.7v-7.88H16.41v12.05h-6.5c0-7.98,0-10.57,0-18.55H57.7v-9.99H64.82L64.82,65.71z M72.56,17l0.16-6.69 c-0.2-2.75-1.11-4.84-2.56-6.41C66.6,0.06,59.95-0.94,54.93,0.88c-0.85,0.31-1.65,0.69-2.38,1.16c-2.07,1.32-3.75,3.24-4.42,5.63 c-0.16,0.56-0.27,1.13-0.32,1.69c-0.11,2.34-0.05,5.13,0.12,7.37c-0.25,0.09-0.48,0.21-0.68,0.34c-0.42,0.28-0.73,0.65-0.93,1.08 c-0.19,0.41-0.28,0.88-0.27,1.4c0.03,1.09,0.53,2.41,1.5,3.84l2.61,4.16c1.1,1.75,2.26,3.54,3.78,4.93 c1.58,1.45,3.51,2.42,6.07,2.43c2.74,0.01,4.75-1.01,6.38-2.53c1.57-1.46,2.73-3.37,3.89-5.26l2.98-4.91 c0.02-0.03,0.04-0.06,0.05-0.1l0,0c0.83-1.87,1-3.18,0.56-4.06C73.61,17.53,73.17,17.18,72.56,17L72.56,17z"/></g></svg>